inDegrees=no
num_controls=7
num_derivatives=13
num_iterations=33
num_multipliers=7
num_parameters=0
num_slacks=7
num_states=26
objective=0.426536
objective_accelerations=0.059014
objective_balance=0.001131
objective_effort=0.015672
objective_height=0.344701
objective_ligament=0.006018
solver_duration=492.027877
status=Solve_Succeeded
success=true
DataType=double
version=3
OpenSimVersion=4.5
endheader
time	/jointset/ground_pelvis/pelvis_tilt/value	/jointset/ground_pelvis/pelvis_tx/value	/jointset/ground_pelvis/pelvis_ty/value	/jointset/hip_l/hip_flexion_l/value	/jointset/hip_l/hip_adduction_l/value	/jointset/hip_l/hip_rotation_l/value	/jointset/back/lumbar_extension/value	/jointset/patellofemoral_l/patellar_flexion_l/value	/jointset/knee_l/knee_flexion_l/value	/jointset/knee_l/knee_adduction_l/value	/jointset/knee_l/knee_rotation_l/value	/jointset/ankle_l/ankle_angle_l/value	/jointset/subtalar_l/subtalar_angle_l/value	/jointset/ground_pelvis/pelvis_tilt/speed	/jointset/ground_pelvis/pelvis_tx/speed	/jointset/ground_pelvis/pelvis_ty/speed	/jointset/hip_l/hip_flexion_l/speed	/jointset/hip_l/hip_adduction_l/speed	/jointset/hip_l/hip_rotation_l/speed	/jointset/back/lumbar_extension/speed	/jointset/patellofemoral_l/patellar_flexion_l/speed	/jointset/knee_l/knee_flexion_l/speed	/jointset/knee_l/knee_adduction_l/speed	/jointset/knee_l/knee_rotation_l/speed	/jointset/ankle_l/ankle_angle_l/speed	/jointset/subtalar_l/subtalar_angle_l/speed	/forceset/tau_hip_flexion_l	/forceset/tau_hip_adduction_l	/forceset/tau_hip_rotation_l	/forceset/tau_knee_flexion_l	/forceset/tau_ankle_angle_l	/forceset/tau_subtalar_angle_l	/forceset/tau_lumbar_extension	lambda_cid13_p0	lambda_cid13_p1	lambda_cid13_p2	lambda_cid13_p3	lambda_cid13_p4	lambda_cid13_p5	lambda_cid14_p0	/jointset/ground_pelvis/pelvis_tilt/accel	/jointset/ground_pelvis/pelvis_tx/accel	/jointset/ground_pelvis/pelvis_ty/accel	/jointset/hip_l/hip_flexion_l/accel	/jointset/hip_l/hip_adduction_l/accel	/jointset/hip_l/hip_rotation_l/accel	/jointset/back/lumbar_extension/accel	/jointset/patellofemoral_l/patellar_flexion_l/accel	/jointset/knee_l/knee_flexion_l/accel	/jointset/knee_l/knee_adduction_l/accel	/jointset/knee_l/knee_rotation_l/accel	/jointset/ankle_l/ankle_angle_l/accel	/jointset/subtalar_l/subtalar_angle_l/accel	gamma_cid13_p0	gamma_cid13_p1	gamma_cid13_p2	gamma_cid13_p3	gamma_cid13_p4	gamma_cid13_p5	gamma_cid14_p0
0	0.04982244775633845	0.1072506791340455	0.9031275280966476	0.1266922784136757	-0.3679342519462139	-0.2193616737385361	-0.2144969558742783	0.2051545070141899	0.2051545070141877	-0.1704533562433558	-0.1538240017013216	0.09024313228550125	0.08123744533980574	0	0	0	0	0	0	0	0	0	0	0	0	0	0.1127450867392884	-0.03214638137386607	-0.00817086276677882	-0.2446500719465604	0.1881065521720268	-0.1077258773480281	-0.04677029475033609	28.48768600611358	43.36847333780108	-8.989719145072337	-18.8331185701388	-436.9082260107334	-27.7278677403106	-25.99951073235172	-3.264287075131262	-1.08577908518711	-0.90371569359804	11.73457840930399	-0.3350238300201721	3.292070858578346	-3.59725713859699	11.33498235824897	11.33498235824948	2.041356449330689	-1.162495818107742	3.804250769635792	0.7454614686619138	1.398585969599887e-09	4.045254178909285e-07	1.696324247300325e-07	-2.268086585690447e-09	1.340365156919455e-07	-6.228599213090573e-08	1.567511080382433e-08
0.01	0.04966351364318151	0.1071976520939051	0.9030838554928351	0.1272636076400822	-0.3679477091301536	-0.2191908940162547	-0.2146814357531256	0.205703487721429	0.2057034877214295	-0.1703495510598919	-0.1538681716633313	0.09042813704999511	0.08127663629431149	-0.03204004235960244	-0.01050797599139745	-0.00869151916751029	0.1139326560466545	-0.002452712262027962	0.03390178377998745	-0.03664733784890543	0.1088994634799439	0.1088994634799462	0.02101217018943912	-0.008622750185853149	0.03671022251682681	0.008013621326030593	0.1154999165599716	-0.04065065492588434	-0.008878777326236703	-0.2509802608871627	0.194637708268199	-0.1015126763924095	-0.04825535114630533	30.85689623570799	40.44628767881747	-8.742053719122149	-20.92820731561066	-438.9319134154311	-34.58559885133884	-26.00002640658884	-3.211855882162514	-1.018692504230503	-0.8453929817788057	11.17262252243124	-0.1646860067076623	3.401097265682848	-3.661176420026099	10.53292351265717	10.53292351265727	2.168908901824103	-0.6804610960607262	3.560813464033037	0.8555427906789016	-1.070105688373765e-08	8.074790586271162e-07	-2.754116182526314e-08	7.19946427428599e-08	-1.293167390766669e-07	1.986733463645605e-07	9.043037421735101e-08
0.02	0.04917658049326982	0.107042468164228	0.9029545631066571	0.1289642660909784	-0.3679785516531983	-0.2186887234305838	-0.2152249298728614	0.2073145620974287	0.2073145620974282	-0.1700280718549348	-0.1539922284226339	0.09097152513391962	0.08140120952729851	-0.06559980735070398	-0.02043137790733191	-0.01712395647309552	0.2258658448967207	-0.003477067820603547	0.06627817267893613	-0.07180284817736547	0.2124187337514893	0.2124187337514924	0.04353480430183174	-0.01597735946116717	0.07167666388672814	0.01707645569627341	0.118254746380709	-0.04915492847787268	-0.009586691885763809	-0.2573104498277524	0.2011688643643712	-0.09529947543675771	-0.04974040754224063	33.27538720719244	37.53183195774072	-8.514309463792197	-23.08412103737113	-440.0621141824251	-41.2517059809103	-26.00088891210863	-3.568231601431087	-0.9688642700945118	-0.8518993212130298	11.33468496998634	-0.04935248932969413	2.986991882370601	-3.298891634507945	10.2589437165693	10.25894371656949	2.343449233921426	-0.9088676359999193	3.455494540250704	0.9553040775043617	-2.280069973707519e-08	1.210432699363304e-06	-2.247147483805588e-07	1.462573720714102e-07	-3.926699938452794e-07	4.596326848600268e-07	1.651856376308777e-07
0.03	0.04835133661756501	0.1067902804807445	0.9027416591918279	0.1317729800387727	-0.3680155192120532	-0.2178704612257203	-0.2161118764953797	0.2099405758043353	0.2099405758043336	-0.1694784283828675	-0.154187147271143	0.09185788578183593	0.08161902829283449	-0.09915501761633609	-0.02997529854386519	-0.02546264132047862	0.3352966226245717	-0.003994229627076016	0.09732245193572818	-0.1053339116351836	0.3124385874261332	0.3124385874261314	0.06611646334737536	-0.02293188872912067	0.1054726936584435	0.02637118765821444	0.1128380610101216	-0.04435024144935298	-0.008310152799020618	-0.2501485366552837	0.191816030590373	-0.09610346390586935	-0.04577655994646886	30.25402695335143	38.15630044805025	-8.324054265887382	-21.09817819813899	-439.3904116474217	-38.91670214693769	-26.00127258586526	-3.205063795194012	-0.9424973721131447	-0.8258048887178663	10.66022757206548	-0.06470714298106865	3.155445097502334	-3.342328997817838	9.821659823287979	9.821659823287137	2.174090568851867	-0.5776328959490798	3.323273714982114	0.8989776637147779	-3.010900505203321e-08	1.377246342428383e-06	-1.610442151405141e-07	1.638911196831741e-07	-5.088318054424114e-07	4.28548432111926e-07	1.805678575385477e-07
